<mxfile host="app.diagrams.net" modified="2023-07-24T08:52:26.710Z" agent="Mozilla/5.0 (Windows NT 10.0; Win64; x64) AppleWebKit/537.36 (KHTML, like Gecko) Chrome/115.0.0.0 Safari/537.36" version="21.3.8" etag="rQfNaR3SX5m1VkZFfyZd" type="github">
  <diagram name="第 1 页" id="7TvB3bb9HfiSOcSIxfoB">
    <mxGraphModel>
      <root>
        <mxCell id="0" />
        <mxCell id="1" parent="0" />
      </root>
    </mxGraphModel>
  </diagram>
</mxfile>
